<?xml version="1.0" standalone="no"?>
<!DOCTYPE svg PUBLIC "-//W3C//DTD SVG 20010904//EN"
 "http://www.w3.org/TR/2001/REC-SVG-20010904/DTD/svg10.dtd">
<svg version="1.0" xmlns="http://www.w3.org/2000/svg"
 width="459.000000pt" height="459.000000pt" viewBox="0 0 459.000000 459.000000"
 preserveAspectRatio="xMidYMid meet">
<metadata>
Created by potrace 1.14, written by Peter Selinger 2001-2017
</metadata>
<g transform="translate(0.000000,459.000000) scale(0.100000,-0.100000)"
fill="#000000" stroke="none">
<path d="M690 4263 c0 -36 19 -84 48 -121 23 -30 27 -43 22 -69 -4 -18 -5 -33
-1 -33 4 0 6 -17 5 -37 0 -21 3 -41 9 -45 12 -7 16 -223 5 -255 -4 -13 -4 -23
0 -23 4 0 7 -82 8 -182 1 -101 3 -192 6 -203 3 -11 1 -31 -5 -45 -5 -14 -11
-52 -12 -85 -2 -33 -3 -64 -4 -70 0 -5 -21 -9 -47 -8 -67 2 -56 -25 21 -49
l60 -19 0 -102 c0 -56 2 -104 5 -107 11 -11 223 -439 221 -446 -2 -4 1 -10 6
-13 5 -3 34 -55 64 -116 29 -60 57 -112 62 -113 4 -2 5 -8 1 -13 -3 -5 0 -9 5
-9 6 0 10 -3 9 -7 -1 -5 26 -63 60 -130 34 -68 61 -125 60 -127 -2 -2 5 -13
15 -23 9 -11 14 -23 10 -26 -3 -4 -1 -7 6 -7 7 0 10 -4 7 -9 -3 -5 1 -14 9
-21 8 -7 12 -16 9 -21 -3 -5 -1 -9 4 -9 9 0 25 -37 23 -52 -1 -5 4 -8 10 -8 5
0 8 -4 5 -9 -4 -5 -3 -11 2 -13 9 -3 101 -188 101 -202 -1 -5 3 -12 8 -15 5
-3 33 -55 63 -116 30 -60 59 -113 65 -117 5 -4 7 -8 3 -8 -4 0 13 -38 38 -85
25 -47 41 -85 37 -85 -4 0 -3 -4 3 -8 7 -4 19 -25 28 -46 13 -31 14 -41 4 -47
-7 -4 -16 -5 -20 -3 -9 6 -11 -27 -2 -50 3 -9 11 -16 18 -16 12 -1 51 -50 39
-50 -4 0 -8 -46 -8 -103 l0 -102 144 -143 c128 -128 146 -143 169 -137 14 3
92 38 172 77 80 39 178 86 218 104 39 19 121 58 181 88 61 29 112 51 115 48 4
-3 6 0 6 6 0 6 10 14 23 18 12 3 65 28 117 53 52 26 97 47 100 48 3 0 86 40
185 88 99 48 186 88 193 88 6 0 12 3 12 7 0 3 35 21 78 40 42 18 84 40 94 47
9 8 22 15 30 17 7 1 72 30 144 65 118 57 130 65 131 89 3 99 8 136 20 148 17
17 14 44 -7 54 -8 4 -29 14 -46 23 -17 9 -34 14 -38 10 -3 -3 -6 -1 -6 5 0 7
-3 11 -7 10 -5 -1 -26 6 -48 16 -22 10 -57 24 -77 31 -20 8 -48 21 -62 30 -14
10 -26 14 -26 10 0 -4 -7 -2 -15 5 -8 7 -15 9 -15 5 0 -4 -7 -2 -15 5 -11 9
-13 28 -10 79 6 85 8 95 25 116 12 15 12 19 -5 31 -10 8 -24 14 -31 14 -7 0
-14 4 -16 10 -1 5 -15 11 -30 12 -16 1 -28 5 -28 8 0 4 -30 17 -67 30 -38 13
-73 27 -80 32 -7 6 -17 7 -23 3 -5 -3 -10 -1 -10 4 0 6 -8 11 -19 11 -24 0
-29 20 -25 99 2 40 9 70 19 81 14 15 14 18 -1 31 -9 7 -25 14 -37 16 -11 2
-27 8 -34 15 -7 6 -16 8 -20 5 -3 -4 -11 -3 -17 2 -6 5 -42 18 -81 30 -38 12
-77 26 -85 31 -14 9 -23 60 -10 60 4 0 6 21 5 47 -2 31 3 51 11 58 17 12 5 33
-21 38 -11 1 -26 6 -32 10 -7 5 -13 6 -13 3 0 -3 -17 0 -37 8 -21 8 -60 20
-88 27 -27 7 -53 17 -56 22 -10 15 -2 136 10 151 13 16 -4 34 -40 42 -13 3
-35 8 -49 11 -14 3 -32 6 -40 8 -8 1 -34 7 -58 14 l-42 12 3 67 c1 37 6 73 11
80 11 18 -4 32 -42 38 -90 14 -157 33 -154 43 1 6 -3 11 -10 11 -9 0 -9 3 0
12 7 7 8 17 1 30 -7 12 -6 18 1 18 8 0 8 6 0 20 -8 15 -8 20 1 20 7 0 9 3 6 7
-4 3 -2 12 4 19 8 10 8 15 -3 19 -8 3 -19 5 -24 4 -5 -1 -11 -1 -14 0 -9 4
-143 12 -212 14 -39 1 -68 6 -69 12 -5 96 -3 125 10 130 9 4 11 9 5 15 -6 6
-109 11 -252 11 -133 1 -242 4 -242 8 0 3 -10 18 -23 33 -13 15 -32 39 -43 54
-10 14 -24 31 -29 38 -31 34 -105 138 -105 147 0 5 -4 7 -10 4 -5 -3 -10 1
-10 9 0 9 -3 16 -7 16 -5 0 -19 17 -33 38 -14 20 -32 44 -41 52 -8 8 -18 23
-22 33 -3 9 -11 17 -17 17 -5 0 -10 7 -10 15 0 7 -6 18 -13 22 -8 4 -29 31
-49 59 -19 28 -40 57 -46 65 -26 29 -49 59 -68 84 -28 39 -103 137 -118 156
-7 8 -31 41 -54 72 -46 62 -62 73 -109 75 -26 2 -33 -2 -33 -15z m198 -334
c17 -20 26 -149 10 -149 -5 0 0 -10 12 -22 22 -24 27 -48 9 -48 -8 0 -8 -4 -2
-12 6 -8 10 -93 9 -208 l-1 -195 -38 -3 -39 -3 5 34 c2 19 1 41 -4 48 -4 7 -5
18 -1 24 6 9 5 90 -3 265 -1 41 -4 77 -5 80 -1 3 -2 52 -2 109 -1 78 3 105 13
112 9 5 15 4 18 -3 2 -6 11 -19 19 -29z m142 -195 c0 -8 4 -14 9 -14 17 0 29
-56 27 -127 -1 -52 2 -74 11 -77 7 -3 13 -18 13 -33 0 -16 -1 -64 -1 -107 0
-44 -2 -82 -5 -85 -9 -9 -34 -9 -34 0 0 6 -8 6 -19 -1 -27 -14 -33 9 -37 150
-1 63 -4 157 -5 208 -2 71 1 96 11 102 17 11 30 4 30 -16z m180 -252 c14 -20
29 -40 35 -44 13 -10 14 -148 0 -149 -54 -4 -67 -4 -76 2 -14 8 -18 127 -7
152 5 9 5 17 0 17 -12 0 -12 32 1 48 14 18 20 15 47 -26z"/>
</g>
</svg>
